<?xml version="1.0" encoding="UTF-8"?>
<svg width="1095px" height="630px" viewBox="0 0 1095 630" version="1.1" xmlns="http://www.w3.org/2000/svg" xmlns:xlink="http://www.w3.org/1999/xlink">
    <!-- Generator: Sketch 50.2 (55047) - http://www.bohemiancoding.com/sketch -->
    <title>ZEER</title>
    <desc>Created with Sketch.</desc>
    <defs></defs>
    <g id="ZEER" stroke="none" stroke-width="1" fill="none" fill-rule="evenodd">
        <rect id="Rectangle-4" fill="#E7530B" x="0" y="0" width="1095" height="630"></rect>
        <rect id="Rectangle" fill="#FFFFFF" x="160" y="225" width="10" height="195"></rect>
        <rect id="Rectangle-Copy" fill="#FFFFFF" x="205" y="355" width="10" height="95"></rect>
        <rect id="Rectangle-Copy-2" fill="#FFFFFF" x="250" y="330" width="10" height="140"></rect>
        <rect id="Rectangle-Copy-3" fill="#FFFFFF" x="295" y="305" width="10" height="145"></rect>
        <rect id="Rectangle-Copy-4" fill="#FFFFFF" x="340" y="280" width="10" height="145"></rect>
        <path d="M254.903811,175.773503 L125.669873,250.386751 L125.669873,399.613249 L254.903811,474.226497 L384.137748,399.613249 L384.137748,250.386751 L254.903811,175.773503 Z" id="Polygon" stroke="#FFFFFF" stroke-width="10"></path>
        <g id="Group" transform="translate(254.126588, 277.051270) rotate(-300.000000) translate(-254.126588, -277.051270) translate(204.126588, 149.551270)" fill="#FFFFFF">
            <rect id="Rectangle-Copy-5" x="0" y="50" width="10" height="155"></rect>
            <rect id="Rectangle-Copy-6" x="45" y="25" width="10" height="205"></rect>
            <rect id="Rectangle-Copy-7" x="90" y="0" width="10" height="255"></rect>
        </g>
        <path d="M432.5,227.5 L432.5,242.5 L495,242.5 C500,244.166667 500,247.5 495,252.5 C490,257.5 469.166667,280.833333 432.5,322.5 L432.5,342.655644 L550.023385,342.655644 L550.023385,327.298979 L487.499677,327.298979 C482.499461,327.014588 482.499461,323.643661 487.499677,317.186196 C492.499892,310.728732 513.341128,285.833333 550.023385,242.5 C553.341128,232.5 550.833333,227.5 542.5,227.5 C534.166667,227.5 497.5,227.5 432.5,227.5 Z" id="Path-2" fill="#FFFFFF"></path>
        <path d="M590.218446,225.004858 L685.218446,225.004858 C693.55178,226.671525 697.718446,230.838192 697.718446,237.504858 C697.718446,244.171525 697.718446,260.004858 697.718446,285.004858 C697.718446,291.671525 693.55178,295.004858 685.218446,295.004858 C676.885113,295.004858 658.55178,295.004858 630.218446,295.004858 C626.885113,295.090714 625.218446,296.757381 625.218446,300.004858 C625.218446,303.252336 625.218446,308.252336 625.218446,315.004858 C625.249371,321.671525 626.916037,325.004858 630.218446,325.004858 C633.520855,325.004858 655.187522,325.004858 695.218446,325.004858 C701.885113,330.004858 701.885113,335.004858 695.218446,340.004858 C685.218446,341.671525 648.55178,341.671525 585.218446,340.004858 C581.885113,340.004858 580.218446,336.671525 580.218446,330.004858 C580.218446,320.004858 579.726942,235.16565 580.218446,230.004858 C580.546115,226.564331 583.879449,224.897664 590.218446,225.004858 Z M630.218446,240.004858 C627.457022,240.004858 625.218446,242.243435 625.218446,245.004858 L625.218446,270.004858 C625.218446,272.766282 627.457022,275.004858 630.218446,275.004858 L655.218446,275.004858 C657.97987,275.004858 660.218446,272.766282 660.218446,270.004858 L660.218446,245.004858 C660.218446,242.243435 657.97987,240.004858 655.218446,240.004858 L630.218446,240.004858 Z" id="Combined-Shape" fill="#FFFFFF"></path>
        <path d="M730.218446,225.004858 L825.218446,225.004858 C833.55178,226.671525 837.718446,230.838192 837.718446,237.504858 C837.718446,244.171525 837.718446,260.004858 837.718446,285.004858 C837.718446,291.671525 833.55178,295.004858 825.218446,295.004858 C816.885113,295.004858 798.55178,295.004858 770.218446,295.004858 C766.885113,295.090714 765.218446,296.757381 765.218446,300.004858 C765.218446,303.252336 765.218446,308.252336 765.218446,315.004858 C765.249371,321.671525 766.916037,325.004858 770.218446,325.004858 C773.520855,325.004858 795.187522,325.004858 835.218446,325.004858 C841.885113,330.004858 841.885113,335.004858 835.218446,340.004858 C825.218446,341.671525 788.55178,341.671525 725.218446,340.004858 C721.885113,340.004858 720.218446,336.671525 720.218446,330.004858 C720.218446,320.004858 719.726942,235.16565 720.218446,230.004858 C720.546115,226.564331 723.879449,224.897664 730.218446,225.004858 Z M770.218446,240.004858 C767.457022,240.004858 765.218446,242.243435 765.218446,245.004858 L765.218446,270.004858 C765.218446,272.766282 767.457022,275.004858 770.218446,275.004858 L795.218446,275.004858 C797.97987,275.004858 800.218446,272.766282 800.218446,270.004858 L800.218446,245.004858 C800.218446,242.243435 797.97987,240.004858 795.218446,240.004858 L770.218446,240.004858 Z" id="Combined-Shape" fill="#FFFFFF"></path>
        <path d="M865,225 L905,225 L905,230 C908.333333,230 911.666667,228.333333 915,225 C926.666667,225 938.333333,225 950,225 L950,240 L915,240 C908.333333,240 905,243.333333 905,250 C905,260 905,340 905,340 C905,340 891.666667,340 865,340 L865,225 Z" id="Path-4" fill="#FFFFFF"></path>
        <rect id="Rectangle-3" fill="#FFFFFF" x="435" y="400" width="85" height="5"></rect>
        <rect id="Rectangle-3-Copy" fill="#FFFFFF" x="865" y="400" width="85" height="5"></rect>
        <text id="Zeer’s-Blog" font-family="PingFang-SC-Regular, PingFang SC" font-size="60" font-weight="normal" line-spacing="85" letter-spacing="-0.500000007" fill="#FFFFFF">
            <tspan x="530" y="419">Zeer’s Blo</tspan>
            <tspan x="811.5" y="419">g</tspan>
        </text>
    </g>
</svg>